# Blender v2.83.5 OBJ File: 'table.blend'
# www.blender.org
mtllib table.mtl
o Cube_Cube.001
v -0.498577 -0.498577 0.498577
v -0.498577 6.568297 0.498577
v -0.498577 -0.498577 -0.498577
v -0.498577 6.568297 -0.498577
v 0.498577 -0.498577 0.498577
v 0.498577 6.568297 0.498577
v 0.498577 -0.498577 -0.498577
v 0.498577 6.568297 -0.498577
vt 0.375000 0.000000
vt 0.625000 0.000000
vt 0.625000 0.250000
vt 0.375000 0.250000
vt 0.625000 0.500000
vt 0.375000 0.500000
vt 0.625000 0.750000
vt 0.375000 0.750000
vt 0.625000 1.000000
vt 0.375000 1.000000
vt 0.125000 0.500000
vt 0.125000 0.750000
vt 0.875000 0.500000
vt 0.875000 0.750000
vn -1.0000 0.0000 0.0000
vn 0.0000 0.0000 -1.0000
vn 1.0000 0.0000 0.0000
vn 0.0000 0.0000 1.0000
vn 0.0000 -1.0000 0.0000
vn 0.0000 1.0000 0.0000
usemtl Material.005
s off
f 1/1/1 2/2/1 4/3/1 3/4/1
f 3/4/2 4/3/2 8/5/2 7/6/2
f 7/6/3 8/5/3 6/7/3 5/8/3
f 5/8/4 6/7/4 2/9/4 1/10/4
f 3/11/5 7/6/5 5/8/5 1/12/5
f 8/5/6 4/13/6 2/14/6 6/7/6
o Cube.001_Cube.002
v 10.512440 -0.498577 0.498577
v 10.512440 6.568297 0.498577
v 10.512440 -0.498577 -0.498577
v 10.512440 6.568297 -0.498577
v 11.509594 -0.498577 0.498577
v 11.509594 6.568297 0.498577
v 11.509594 -0.498577 -0.498577
v 11.509594 6.568297 -0.498577
vt 0.375000 0.000000
vt 0.625000 0.000000
vt 0.625000 0.250000
vt 0.375000 0.250000
vt 0.625000 0.500000
vt 0.375000 0.500000
vt 0.625000 0.750000
vt 0.375000 0.750000
vt 0.625000 1.000000
vt 0.375000 1.000000
vt 0.125000 0.500000
vt 0.125000 0.750000
vt 0.875000 0.500000
vt 0.875000 0.750000
vn -1.0000 0.0000 0.0000
vn 0.0000 0.0000 -1.0000
vn 1.0000 0.0000 0.0000
vn 0.0000 0.0000 1.0000
vn 0.0000 -1.0000 0.0000
vn 0.0000 1.0000 0.0000
usemtl Material.002
s off
f 9/15/7 10/16/7 12/17/7 11/18/7
f 11/18/8 12/17/8 16/19/8 15/20/8
f 15/20/9 16/19/9 14/21/9 13/22/9
f 13/22/10 14/21/10 10/23/10 9/24/10
f 11/25/11 15/20/11 13/22/11 9/26/11
f 16/19/12 12/27/12 10/28/12 14/21/12
o Cube.002_Cube.003
v -0.498577 -0.498577 12.751984
v -0.498577 6.568297 12.751984
v -0.498577 -0.498577 11.754829
v -0.498577 6.568297 11.754829
v 0.498577 -0.498577 12.751984
v 0.498577 6.568297 12.751984
v 0.498577 -0.498577 11.754829
v 0.498577 6.568297 11.754829
vt 0.375000 0.000000
vt 0.625000 0.000000
vt 0.625000 0.250000
vt 0.375000 0.250000
vt 0.625000 0.500000
vt 0.375000 0.500000
vt 0.625000 0.750000
vt 0.375000 0.750000
vt 0.625000 1.000000
vt 0.375000 1.000000
vt 0.125000 0.500000
vt 0.125000 0.750000
vt 0.875000 0.500000
vt 0.875000 0.750000
vn -1.0000 0.0000 0.0000
vn 0.0000 0.0000 -1.0000
vn 1.0000 0.0000 0.0000
vn 0.0000 0.0000 1.0000
vn 0.0000 -1.0000 0.0000
vn 0.0000 1.0000 0.0000
usemtl Material.004
s off
f 17/29/13 18/30/13 20/31/13 19/32/13
f 19/32/14 20/31/14 24/33/14 23/34/14
f 23/34/15 24/33/15 22/35/15 21/36/15
f 21/36/16 22/35/16 18/37/16 17/38/16
f 19/39/17 23/34/17 21/36/17 17/40/17
f 24/33/18 20/41/18 18/42/18 22/35/18
o Cube.003_Cube.004
v 10.512440 -0.498577 12.751984
v 10.512440 6.568297 12.751984
v 10.512440 -0.498577 11.754829
v 10.512440 6.568297 11.754829
v 11.509594 -0.498577 12.751984
v 11.509594 6.568297 12.751984
v 11.509594 -0.498577 11.754829
v 11.509594 6.568297 11.754829
vt 0.375000 0.000000
vt 0.625000 0.000000
vt 0.625000 0.250000
vt 0.375000 0.250000
vt 0.625000 0.500000
vt 0.375000 0.500000
vt 0.625000 0.750000
vt 0.375000 0.750000
vt 0.625000 1.000000
vt 0.375000 1.000000
vt 0.125000 0.500000
vt 0.125000 0.750000
vt 0.875000 0.500000
vt 0.875000 0.750000
vn -1.0000 0.0000 0.0000
vn 0.0000 0.0000 -1.0000
vn 1.0000 0.0000 0.0000
vn 0.0000 0.0000 1.0000
vn 0.0000 -1.0000 0.0000
vn 0.0000 1.0000 0.0000
usemtl Material.003
s off
f 25/43/19 26/44/19 28/45/19 27/46/19
f 27/46/20 28/45/20 32/47/20 31/48/20
f 31/48/21 32/47/21 30/49/21 29/50/21
f 29/50/22 30/49/22 26/51/22 25/52/22
f 27/53/23 31/48/23 29/50/23 25/54/23
f 32/47/24 28/55/24 26/56/24 30/49/24
o Cube.004_Cube.005
v -2.308734 6.571714 13.254204
v -2.308734 7.359094 13.254204
v -2.308734 6.571714 -0.943567
v -2.308734 7.359094 -0.943567
v 13.404881 6.571714 13.254204
v 13.404881 7.359094 13.254204
v 13.404881 6.571714 -0.943567
v 13.404881 7.359094 -0.943567
vt 0.375000 0.000000
vt 0.625000 0.000000
vt 0.625000 0.250000
vt 0.375000 0.250000
vt 0.625000 0.500000
vt 0.375000 0.500000
vt 0.625000 0.750000
vt 0.375000 0.750000
vt 0.625000 1.000000
vt 0.375000 1.000000
vt 0.125000 0.500000
vt 0.125000 0.750000
vt 0.875000 0.500000
vt 0.875000 0.750000
vn -1.0000 0.0000 0.0000
vn 0.0000 0.0000 -1.0000
vn 1.0000 0.0000 0.0000
vn 0.0000 0.0000 1.0000
vn 0.0000 -1.0000 0.0000
vn 0.0000 1.0000 0.0000
usemtl Material.001
s off
f 33/57/25 34/58/25 36/59/25 35/60/25
f 35/60/26 36/59/26 40/61/26 39/62/26
f 39/62/27 40/61/27 38/63/27 37/64/27
f 37/64/28 38/63/28 34/65/28 33/66/28
f 35/67/29 39/62/29 37/64/29 33/68/29
f 40/61/30 36/69/30 34/70/30 38/63/30
o Cube.005_Cube.006
v 10.156519 -0.460186 -8.848017
v 10.156519 0.231747 -8.848017
v 10.156519 -0.460186 -9.539949
v 10.156519 0.231747 -9.539949
v 10.848452 -0.460186 -8.848017
v 10.848452 0.231747 -8.848017
v 10.848452 -0.460186 -9.539949
v 10.848452 0.231747 -9.539949
v 10.156519 4.403998 -8.848017
v 10.156519 4.403998 -9.539949
v 10.848452 4.403998 -9.539949
v 10.848452 4.403998 -8.848017
vt 0.375000 0.000000
vt 0.625000 0.000000
vt 0.625000 0.250000
vt 0.375000 0.250000
vt 0.625000 0.500000
vt 0.375000 0.500000
vt 0.625000 0.750000
vt 0.375000 0.750000
vt 0.625000 1.000000
vt 0.375000 1.000000
vt 0.125000 0.500000
vt 0.125000 0.750000
vt 0.625000 0.500000
vt 0.625000 0.750000
vt 0.875000 0.500000
vt 0.875000 0.750000
vt 0.625000 0.000000
vt 0.625000 0.250000
vt 0.625000 1.000000
vn -1.0000 0.0000 0.0000
vn 0.0000 0.0000 -1.0000
vn 1.0000 0.0000 0.0000
vn 0.0000 0.0000 1.0000
vn 0.0000 -1.0000 0.0000
vn 0.0000 1.0000 0.0000
usemtl Material.006
s off
f 41/71/31 42/72/31 44/73/31 43/74/31
f 43/74/32 44/73/32 48/75/32 47/76/32
f 47/76/33 48/75/33 46/77/33 45/78/33
f 45/78/34 46/77/34 42/79/34 41/80/34
f 43/81/35 47/76/35 45/78/35 41/82/35
f 46/77/33 48/75/33 51/83/33 52/84/33
f 51/83/36 50/85/36 49/86/36 52/84/36
f 44/73/31 42/72/31 49/87/31 50/88/31
f 42/79/34 46/77/34 52/84/34 49/89/34
f 48/75/32 44/73/32 50/88/32 51/83/32
o Cube.006_Cube.007
v 4.390973 -0.460186 -8.848017
v 4.390973 0.231747 -8.848017
v 4.390973 -0.460186 -9.539949
v 4.390973 0.231747 -9.539949
v 5.082906 -0.460186 -8.848017
v 5.082906 0.231747 -8.848017
v 5.082906 -0.460186 -9.539949
v 5.082906 0.231747 -9.539949
v 4.390973 4.403998 -8.848017
v 4.390973 4.403998 -9.539949
v 5.082906 4.403998 -9.539949
v 5.082906 4.403998 -8.848017
vt 0.375000 0.000000
vt 0.625000 0.000000
vt 0.625000 0.250000
vt 0.375000 0.250000
vt 0.625000 0.500000
vt 0.375000 0.500000
vt 0.625000 0.750000
vt 0.375000 0.750000
vt 0.625000 1.000000
vt 0.375000 1.000000
vt 0.125000 0.500000
vt 0.125000 0.750000
vt 0.625000 0.500000
vt 0.625000 0.750000
vt 0.875000 0.500000
vt 0.875000 0.750000
vt 0.625000 0.000000
vt 0.625000 0.250000
vt 0.625000 1.000000
vn -1.0000 0.0000 0.0000
vn 0.0000 0.0000 -1.0000
vn 1.0000 0.0000 0.0000
vn 0.0000 0.0000 1.0000
vn 0.0000 -1.0000 0.0000
vn 0.0000 1.0000 0.0000
usemtl Material.011
s off
f 53/90/37 54/91/37 56/92/37 55/93/37
f 55/93/38 56/92/38 60/94/38 59/95/38
f 59/95/39 60/94/39 58/96/39 57/97/39
f 57/97/40 58/96/40 54/98/40 53/99/40
f 55/100/41 59/95/41 57/97/41 53/101/41
f 58/96/39 60/94/39 63/102/39 64/103/39
f 63/102/42 62/104/42 61/105/42 64/103/42
f 56/92/37 54/91/37 61/106/37 62/107/37
f 54/98/40 58/96/40 64/103/40 61/108/40
f 60/94/38 56/92/38 62/107/38 63/102/38
o Cube.007_Cube.008
v 10.156519 -0.446680 -14.323689
v 10.156519 0.938826 -14.323689
v 10.156519 -0.446680 -15.015622
v 10.156519 0.938826 -15.015622
v 10.848452 -0.446680 -14.323689
v 10.848452 0.938826 -14.323689
v 10.848452 -0.446680 -15.015622
v 10.848452 0.938826 -15.015622
v 9.849592 9.304995 -14.456725
v 9.849592 9.304995 -14.816819
v 10.209686 9.304995 -14.816819
v 10.209686 9.304995 -14.456725
v 10.848452 5.116021 -15.015622
v 10.848452 5.116021 -14.323689
v 10.156519 5.116021 -14.323689
v 10.156519 5.116021 -15.015622
v 10.848452 7.204618 -15.015622
v 10.156519 7.204618 -14.323689
v 10.848452 7.204618 -14.323689
v 10.156519 7.204618 -15.015622
v 7.293262 9.293216 -14.468896
v 7.293262 9.293216 -14.870415
v 7.694782 9.293216 -14.870415
v 7.694782 9.293216 -14.468896
v 7.839990 5.116021 -15.015622
v 7.839990 5.116021 -14.323689
v 7.148056 5.116021 -14.323689
v 7.148056 5.116021 -15.015622
v 7.839990 7.204618 -15.015622
v 7.148056 7.204618 -14.323689
v 7.839990 7.204618 -14.323689
v 7.148056 7.204618 -15.015622
vt 0.375000 0.000000
vt 0.625000 0.000000
vt 0.625000 0.250000
vt 0.375000 0.250000
vt 0.625000 0.500000
vt 0.375000 0.500000
vt 0.625000 0.750000
vt 0.375000 0.750000
vt 0.625000 1.000000
vt 0.375000 1.000000
vt 0.125000 0.500000
vt 0.125000 0.750000
vt 0.625000 0.750000
vt 0.625000 0.500000
vt 0.625000 0.500000
vt 0.625000 0.750000
vt 0.875000 0.500000
vt 0.875000 0.750000
vt 0.625000 0.250000
vt 0.625000 0.000000
vt 0.625000 0.000000
vt 0.625000 0.250000
vt 0.625000 1.000000
vt 0.625000 1.000000
vt 0.625000 0.250000
vt 0.625000 0.500000
vt 0.625000 0.750000
vt 0.625000 1.000000
vt 0.625000 0.000000
vt 0.625000 0.750000
vt 0.625000 0.500000
vt 0.625000 0.500000
vt 0.625000 0.750000
vt 0.875000 0.500000
vt 0.875000 0.750000
vt 0.625000 0.250000
vt 0.625000 0.000000
vt 0.625000 0.000000
vt 0.625000 0.250000
vt 0.625000 1.000000
vt 0.625000 1.000000
vt 0.625000 0.500000
vt 0.625000 0.250000
vt 0.625000 1.000000
vt 0.625000 0.750000
vt 0.625000 0.000000
vn -1.0000 0.0000 0.0000
vn 0.0000 0.0000 -1.0000
vn 1.0000 0.0000 0.0000
vn 0.0000 0.0000 1.0000
vn 0.0000 -1.0000 0.0000
vn 0.9567 0.2910 0.0000
vn 0.0000 1.0000 0.0000
vn -0.9895 -0.1446 0.0000
vn 0.0000 0.0632 0.9980
vn 0.0000 0.0942 -0.9956
vn 0.9976 0.0694 0.0000
vn -0.9976 0.0694 0.0000
vn 0.0000 0.0694 0.9976
vn 0.0000 0.0694 -0.9976
usemtl Material.007
s off
f 65/109/43 66/110/43 68/111/43 67/112/43
f 67/112/44 68/111/44 72/113/44 71/114/44
f 71/114/45 72/113/45 70/115/45 69/116/45
f 69/116/46 70/115/46 66/117/46 65/118/46
f 67/119/47 71/114/47 69/116/47 65/120/47
f 83/121/48 81/122/48 75/123/48 76/124/48
f 75/123/49 74/125/49 73/126/49 76/124/49
f 84/127/50 82/128/50 73/129/50 74/130/50
f 82/131/51 83/121/51 76/124/51 73/132/51
f 81/122/52 84/127/52 74/130/52 75/123/52
f 72/113/44 68/111/44 80/133/44 77/134/44
f 66/117/46 70/115/46 78/135/46 79/136/46
f 68/111/43 66/110/43 79/137/43 80/133/43
f 70/115/45 72/113/45 77/134/45 78/135/45
f 77/134/44 80/133/44 84/127/44 81/122/44
f 79/136/46 78/135/46 83/121/46 82/131/46
f 80/133/43 79/137/43 82/128/43 84/127/43
f 78/135/45 77/134/45 81/122/45 83/121/45
f 95/138/53 93/139/53 87/140/53 88/141/53
f 87/140/49 86/142/49 85/143/49 88/141/49
f 96/144/54 94/145/54 85/146/54 86/147/54
f 94/148/55 95/138/55 88/141/55 85/149/55
f 93/139/56 96/144/56 86/147/56 87/140/56
f 89/150/44 92/151/44 96/144/44 93/139/44
f 91/152/46 90/153/46 95/138/46 94/148/46
f 92/151/43 91/154/43 94/145/43 96/144/43
f 90/153/45 89/150/45 93/139/45 95/138/45
o Cube.008_Cube.009
v 4.390973 -0.446680 -14.323689
v 4.390973 0.938826 -14.323689
v 4.390973 -0.446680 -15.015622
v 4.390973 0.938826 -15.015622
v 5.082906 -0.446680 -14.323689
v 5.082906 0.938826 -14.323689
v 5.082906 -0.446680 -15.015622
v 5.082906 0.938826 -15.015622
v 4.893878 9.293216 -14.498649
v 4.893878 9.293216 -14.874391
v 5.269620 9.293216 -14.874391
v 5.269620 9.293216 -14.498649
v 5.082906 5.116021 -15.015622
v 5.082906 5.116021 -14.323689
v 4.390973 5.116021 -14.323689
v 4.390973 5.116021 -15.015622
v 5.082906 7.204618 -15.015622
v 4.390973 7.204618 -14.323689
v 5.082906 7.204618 -14.323689
v 4.390973 7.204618 -15.015622
vt 0.375000 0.000000
vt 0.625000 0.000000
vt 0.625000 0.250000
vt 0.375000 0.250000
vt 0.625000 0.500000
vt 0.375000 0.500000
vt 0.625000 0.750000
vt 0.375000 0.750000
vt 0.625000 1.000000
vt 0.375000 1.000000
vt 0.125000 0.500000
vt 0.125000 0.750000
vt 0.625000 0.750000
vt 0.625000 0.500000
vt 0.625000 0.500000
vt 0.625000 0.750000
vt 0.875000 0.500000
vt 0.875000 0.750000
vt 0.625000 0.250000
vt 0.625000 0.000000
vt 0.625000 0.000000
vt 0.625000 0.250000
vt 0.625000 1.000000
vt 0.625000 1.000000
vt 0.625000 0.250000
vt 0.625000 0.500000
vt 0.625000 0.750000
vt 0.625000 1.000000
vt 0.625000 0.000000
vn -1.0000 0.0000 0.0000
vn 0.0000 0.0000 -1.0000
vn 1.0000 0.0000 0.0000
vn 0.0000 0.0000 1.0000
vn 0.0000 -1.0000 0.0000
vn 0.9960 -0.0890 0.0000
vn 0.0000 1.0000 0.0000
vn -0.9722 0.2341 0.0000
vn 0.0000 0.0835 0.9965
vn 0.0000 0.0675 -0.9977
usemtl Material.009
s off
f 97/155/57 98/156/57 100/157/57 99/158/57
f 99/158/58 100/157/58 104/159/58 103/160/58
f 103/160/59 104/159/59 102/161/59 101/162/59
f 101/162/60 102/161/60 98/163/60 97/164/60
f 99/165/61 103/160/61 101/162/61 97/166/61
f 115/167/62 113/168/62 107/169/62 108/170/62
f 107/169/63 106/171/63 105/172/63 108/170/63
f 116/173/64 114/174/64 105/175/64 106/176/64
f 114/177/65 115/167/65 108/170/65 105/178/65
f 113/168/66 116/173/66 106/176/66 107/169/66
f 104/159/58 100/157/58 112/179/58 109/180/58
f 98/163/60 102/161/60 110/181/60 111/182/60
f 100/157/57 98/156/57 111/183/57 112/179/57
f 102/161/59 104/159/59 109/180/59 110/181/59
f 109/180/58 112/179/58 116/173/58 113/168/58
f 111/182/60 110/181/60 115/167/60 114/177/60
f 112/179/57 111/183/57 114/174/57 116/173/57
f 110/181/59 109/180/59 113/168/59 115/167/59
o Cube.009_Cube.010
v 4.038976 4.233562 -8.278866
v 4.025198 5.157402 -8.250051
v 4.038976 4.233562 -15.044886
v 4.025198 5.157402 -15.016071
v 11.292029 4.233562 -8.278866
v 11.278251 5.157402 -8.250051
v 11.292029 4.233562 -15.044886
v 11.278251 5.157402 -15.016071
vt 0.375000 0.000000
vt 0.625000 0.000000
vt 0.625000 0.250000
vt 0.375000 0.250000
vt 0.625000 0.500000
vt 0.375000 0.500000
vt 0.625000 0.750000
vt 0.375000 0.750000
vt 0.625000 1.000000
vt 0.375000 1.000000
vt 0.125000 0.500000
vt 0.125000 0.750000
vt 0.875000 0.500000
vt 0.875000 0.750000
vn -0.9999 -0.0149 0.0000
vn 0.0000 0.0312 -0.9995
vn 0.9999 0.0149 0.0000
vn 0.0000 -0.0312 0.9995
vn 0.0000 -1.0000 0.0000
vn 0.0000 1.0000 0.0000
usemtl Material.010
s off
f 117/184/67 118/185/67 120/186/67 119/187/67
f 119/187/68 120/186/68 124/188/68 123/189/68
f 123/189/69 124/188/69 122/190/69 121/191/69
f 121/191/70 122/190/70 118/192/70 117/193/70
f 119/194/71 123/189/71 121/191/71 117/195/71
f 124/188/72 120/196/72 118/197/72 122/190/72
o Cube.010_Cube.011
v 4.892771 9.393051 -14.573682
v 5.581248 9.469652 -14.519706
v 4.892771 9.393051 -14.718705
v 5.581248 9.469652 -14.772681
v 4.892771 9.187244 -14.573682
v 5.581248 9.110643 -14.519706
v 4.892771 9.187244 -14.718705
v 5.581248 9.110643 -14.772681
v 10.232548 9.403932 -14.566016
v 10.232548 9.403932 -14.726371
v 10.232548 9.176366 -14.726371
v 10.232548 9.176366 -14.566016
v 7.920751 9.110644 -14.772681
v 7.920751 9.110644 -14.519706
v 7.920751 9.469652 -14.519706
v 7.920751 9.469652 -14.772681
v 9.090503 9.110644 -14.772681
v 9.090503 9.469652 -14.519706
v 9.090503 9.110644 -14.519706
v 9.090503 9.469652 -14.772681
v 6.750999 9.110644 -14.519706
v 6.750999 9.469652 -14.772681
v 6.750999 9.110644 -14.772681
v 6.750999 9.469652 -14.519706
v 9.675379 9.110644 -14.772681
v 9.675379 9.469652 -14.519706
v 9.675379 9.110644 -14.519706
v 9.675379 9.469652 -14.772681
vt 0.375000 0.000000
vt 0.625000 0.000000
vt 0.625000 0.250000
vt 0.375000 0.250000
vt 0.625000 0.500000
vt 0.375000 0.500000
vt 0.625000 0.750000
vt 0.375000 0.750000
vt 0.625000 1.000000
vt 0.375000 1.000000
vt 0.125000 0.500000
vt 0.125000 0.750000
vt 0.625000 0.750000
vt 0.625000 0.500000
vt 0.625000 0.500000
vt 0.625000 0.750000
vt 0.875000 0.500000
vt 0.875000 0.750000
vt 0.625000 0.250000
vt 0.625000 0.000000
vt 0.625000 0.000000
vt 0.625000 0.250000
vt 0.625000 1.000000
vt 0.625000 1.000000
vt 0.625000 0.500000
vt 0.625000 0.250000
vt 0.625000 0.250000
vt 0.625000 0.500000
vt 0.625000 1.000000
vt 0.625000 0.750000
vt 0.625000 0.750000
vt 0.625000 1.000000
vt 0.625000 0.000000
vt 0.625000 0.000000
vt 0.625000 0.250000
vt 0.625000 0.500000
vt 0.625000 0.750000
vt 0.625000 1.000000
vt 0.625000 0.000000
vn -0.1106 0.9939 0.0000
vn -0.0782 0.0000 -0.9969
vn -0.1106 -0.9939 0.0000
vn -0.0782 0.0000 0.9969
vn -1.0000 0.0000 0.0000
vn 0.1171 -0.9931 0.0000
vn 1.0000 0.0000 0.0000
vn 0.1171 0.9931 0.0000
vn 0.0828 0.0000 0.9966
vn 0.0828 0.0000 -0.9966
vn 0.0000 0.0000 -1.0000
vn 0.0000 0.0000 1.0000
vn 0.0000 1.0000 0.0000
vn 0.0000 -1.0000 0.0000
usemtl Material.008
s off
f 125/198/73 126/199/73 128/200/73 127/201/73
f 127/201/74 128/200/74 132/202/74 131/203/74
f 131/203/75 132/202/75 130/204/75 129/205/75
f 129/205/76 130/204/76 126/206/76 125/207/76
f 127/208/77 131/203/77 129/205/77 125/209/77
f 151/210/78 149/211/78 135/212/78 136/213/78
f 135/212/79 134/214/79 133/215/79 136/213/79
f 152/216/80 150/217/80 133/218/80 134/219/80
f 150/220/81 151/210/81 136/213/81 133/221/81
f 149/211/82 152/216/82 134/219/82 135/212/82
f 147/222/83 146/223/83 140/224/83 137/225/83
f 148/226/84 145/227/84 138/228/84 139/229/84
f 146/223/85 148/230/85 139/231/85 140/224/85
f 145/227/86 147/222/86 137/225/86 138/228/86
f 137/225/83 140/224/83 144/232/83 141/233/83
f 139/229/84 138/228/84 143/234/84 142/235/84
f 140/224/85 139/231/85 142/236/85 144/232/85
f 138/228/86 137/225/86 141/233/86 143/234/86
f 130/204/86 132/202/86 147/222/86 145/227/86
f 128/200/85 126/199/85 148/230/85 146/223/85
f 126/206/84 130/204/84 145/227/84 148/226/84
f 132/202/83 128/200/83 146/223/83 147/222/83
f 141/233/83 144/232/83 152/216/83 149/211/83
f 142/235/84 143/234/84 151/210/84 150/220/84
f 144/232/85 142/236/85 150/217/85 152/216/85
f 143/234/86 141/233/86 149/211/86 151/210/86
